<svg width="126" height="32" viewBox="0 0 126 32" fill="none" xmlns="http://www.w3.org/2000/svg">
<g id="Logo">
<g id="Vector">
<path d="M25.2141 22.7745C25.2141 24.716 25.3115 26.3166 25.3364 26.6709C25.3606 27.2426 25.5074 27.517 25.9472 27.517H26.2647C26.3621 27.517 26.3621 27.5622 26.3621 27.6197V27.881C26.3621 27.9497 26.3621 27.9725 26.2647 27.9725C26.1424 27.9725 25.4093 27.9385 24.9464 27.9385C24.6289 27.9385 23.7984 27.9725 23.6764 27.9725C23.6277 27.9725 23.6032 27.9497 23.6032 27.8698V27.5834C23.6049 27.5648 23.6133 27.5475 23.6268 27.5349C23.6404 27.5224 23.6581 27.5154 23.6764 27.5155H24.0921C24.4096 27.5155 24.5806 27.2638 24.6414 26.5668C24.6531 26.3614 24.7267 24.7616 24.7267 22.9332V21.483C24.7267 20.7979 24.3111 20.2715 23.7746 20.2715H23.3817C23.333 20.2603 23.3084 20.2375 23.3084 20.1919V19.8832C23.3084 19.838 23.3326 19.8145 23.3817 19.8145C23.4428 19.8145 23.5409 19.8264 23.7603 19.838C23.9797 19.8495 24.3096 19.8492 24.8472 19.8492C25.0548 19.8492 25.2383 19.838 25.3851 19.8264C25.5444 19.8264 25.6539 19.8145 25.7271 19.8145C25.7803 19.8096 25.8339 19.8163 25.8843 19.834C25.9348 19.8517 25.9811 19.88 26.0201 19.9171C26.1424 20.0318 28.5362 22.8428 28.7805 23.1624C28.9515 23.3454 30.8564 25.5624 31.0509 25.7905H31.0996V24.6032C31.0996 23.5974 31.0996 23.0261 31.0754 22.4545C31.0512 22.0203 31.0022 20.9002 30.9414 20.7061C30.8929 20.5728 30.8039 20.4588 30.6875 20.3807C30.571 20.3026 30.4331 20.2645 30.2939 20.2718H29.905C29.8318 20.2718 29.8318 20.2267 29.8318 20.1692V19.9078C29.8318 19.8398 29.8318 19.8163 29.9299 19.8163C30.0764 19.8163 30.4679 19.851 31.298 19.851C32.0304 19.851 32.3234 19.8163 32.4699 19.8163C32.568 19.8163 32.5922 19.8622 32.5922 19.8962V20.1576C32.5922 20.2263 32.568 20.2715 32.5189 20.2715H32.1754C31.9316 20.2715 31.8092 20.4548 31.7726 20.8771C31.7122 21.654 31.5895 23.5739 31.5895 24.7395V27.7559C31.5895 27.9161 31.5895 28.0763 31.4431 28.0763C31.2871 28.0696 31.1391 28.0045 31.0274 27.8933C30.93 27.7795 30.2701 27.0719 29.5128 26.2251C28.6581 25.2424 27.7057 24.1686 27.5588 23.9849C27.3878 23.8248 25.4349 21.5394 25.2884 21.3792H25.2152L25.2141 22.7745Z" fill="#04682A"/>
<path d="M35.9732 27.3796C35.6772 27.6749 35.3114 27.8872 34.9113 27.996C34.6557 28.0604 34.3925 28.0873 34.1295 28.0759C34.0088 28.0741 33.8898 28.0464 33.7803 27.9947C33.6708 27.943 33.5732 27.8684 33.4938 27.7757C33.4144 27.6831 33.355 27.5744 33.3194 27.4568C33.2838 27.3393 33.2728 27.2154 33.2872 27.0932C33.2872 26.5675 33.5318 26.0538 34.4114 25.6879C34.9219 25.483 35.4194 25.2461 35.9011 24.9785V24.3848C35.9064 24.1554 35.8379 23.9305 35.7059 23.7445C35.5309 23.6107 35.3126 23.5495 35.0951 23.5731C34.8448 23.5738 34.5995 23.6451 34.3865 23.7792C34.2155 23.8931 34.3378 24.0648 34.3378 24.3393C34.3378 24.75 34.1181 25.0024 33.6054 25.0024C33.5526 25.007 33.4993 25.0004 33.4491 24.983C33.3989 24.9656 33.3528 24.9377 33.3137 24.9011C33.2746 24.8645 33.2434 24.82 33.2221 24.7705C33.2007 24.7209 33.1898 24.6674 33.1898 24.6133C33.2028 24.4228 33.2606 24.2382 33.3583 24.0752C33.456 23.9122 33.5908 23.7756 33.7512 23.6769C34.3289 23.2588 35.0202 23.035 35.7286 23.0366C36.4123 23.0366 36.6328 23.174 36.8521 23.3569C36.963 23.4671 37.0472 23.602 37.0981 23.751C37.1489 23.9001 37.165 24.0592 37.1451 24.2157L37.1692 26.0209V26.5694C37.1692 27.1866 37.2674 27.3691 37.4867 27.3691C37.5613 27.3714 37.6354 27.3561 37.7033 27.3243C37.7711 27.2926 37.8308 27.2453 37.8778 27.1862C37.9265 27.1175 37.9511 27.1175 38.0001 27.141L38.1466 27.2325C38.196 27.2553 38.2198 27.3012 38.1715 27.4154C38.0631 27.6213 37.9006 27.7923 37.7021 27.9091C37.5036 28.0259 37.2771 28.0839 37.048 28.0767C36.8255 28.0932 36.604 28.0338 36.4183 27.9077C36.2326 27.7816 36.0934 27.596 36.0227 27.3803L35.9732 27.3796ZM35.9 25.4008C35.3628 25.7211 34.5561 25.9153 34.5561 26.749C34.5561 27.2179 34.8249 27.4461 35.1182 27.4461C35.4602 27.4233 35.9 27.1033 35.9 26.8976V25.4008Z" fill="#04682A"/>
<path d="M38.2806 23.8027C38.1825 23.8027 38.1096 23.7576 38.1096 23.6426C38.1096 23.5511 38.1829 23.4831 38.3418 23.4256C38.9968 23.0772 39.5681 22.5854 40.0149 21.9856C40.033 21.9491 40.0612 21.9188 40.096 21.8985C40.1309 21.8783 40.1708 21.8689 40.2108 21.8717C40.2313 21.8707 40.2517 21.8742 40.2706 21.8821C40.2896 21.8899 40.3066 21.9019 40.3205 21.9171C40.3345 21.9324 40.345 21.9505 40.3513 21.9704C40.3577 21.9902 40.3597 22.0112 40.3573 22.0319L40.3086 23.1632H41.9199C41.9931 23.1632 42.018 23.2084 42.0059 23.2546L41.8854 23.734C41.873 23.78 41.836 23.8027 41.7631 23.8027H40.2837C40.2595 24.2829 40.2471 24.8314 40.2471 25.3335V26.3614C40.2471 27.2526 40.6499 27.4352 40.8945 27.4352C41.137 27.4381 41.3777 27.3917 41.6024 27.2986C41.6877 27.2638 41.7247 27.2638 41.7489 27.3213L41.8221 27.458C41.8329 27.4864 41.834 27.5177 41.8251 27.5467C41.8163 27.5758 41.7981 27.601 41.7734 27.6182C41.3184 27.9268 40.7818 28.0865 40.2354 28.0759C39.503 28.0759 38.9537 27.5271 38.9537 27.0473C38.9537 26.6366 38.9903 25.7218 38.9903 25.2876V23.8027H38.2806Z" fill="#04682A"/>
<path d="M43.1554 24.6828C43.1554 24.34 43.0822 24.1111 42.5197 23.9734C42.4098 23.9506 42.3981 23.9159 42.3981 23.8707V23.7445C42.3981 23.6993 42.4223 23.6765 42.4834 23.653C42.6545 23.5843 43.8633 23.1848 44.0713 23.1046C44.1644 23.065 44.2635 23.0418 44.3642 23.0359C44.4375 23.0359 44.4741 23.0818 44.4616 23.1733C44.4375 23.3562 44.4375 24.0873 44.4375 25.0356V26.2696C44.4288 26.5973 44.4369 26.9254 44.4616 27.2523C44.4865 27.4576 44.5349 27.551 44.6575 27.551H45.146C45.2434 27.551 45.2683 27.5737 45.2683 27.6305V27.8594C45.2683 27.9281 45.2434 27.9732 45.1702 27.9732C45.0721 27.9732 44.5111 27.9393 43.6922 27.9393C42.9837 27.9393 42.5204 27.9732 42.374 27.9732C42.3128 27.9732 42.2758 27.9505 42.2758 27.8594V27.6417C42.2758 27.5737 42.3245 27.551 42.3981 27.551H42.9353C43.0576 27.551 43.1184 27.505 43.1312 27.3221C43.143 26.9793 43.1554 26.6127 43.1554 26.2935V24.6828ZM43.5703 21.8605C43.3885 21.8758 43.2081 21.8172 43.0685 21.6973C42.929 21.5775 42.8416 21.4062 42.8255 21.2209C42.8255 20.8894 43.155 20.5806 43.6439 20.5806C43.7297 20.5702 43.8167 20.5774 43.8997 20.6019C43.9827 20.6263 44.0601 20.6674 44.1272 20.7228C44.1944 20.7782 44.25 20.8468 44.2908 20.9244C44.3315 21.0021 44.3566 21.0873 44.3646 21.175C44.3613 21.2749 44.3375 21.373 44.2948 21.463C44.2521 21.553 44.1914 21.6328 44.1165 21.6974C44.0417 21.762 43.9545 21.81 43.8604 21.8381C43.7663 21.8663 43.6675 21.8736 43.5703 21.8605Z" fill="#04682A"/>
<path d="M50.1468 23.7113C50.4075 23.9316 50.6179 24.2073 50.7634 24.5191C50.9089 24.8309 50.9859 25.1712 50.989 25.5165C50.97 26.1748 50.6984 26.7991 50.2325 27.2553C49.9619 27.5251 49.6411 27.7368 49.2888 27.8779C48.9366 28.019 48.5601 28.0866 48.1818 28.0767C47.813 28.0982 47.4442 28.0356 47.1021 27.8935C46.7601 27.7514 46.4534 27.5334 46.2043 27.2553C45.9764 27.0254 45.7996 26.7483 45.6859 26.4427C45.5722 26.1371 45.5242 25.8102 45.5452 25.484C45.5641 25.1093 45.6663 24.7439 45.8439 24.4152C46.0215 24.0866 46.27 23.8034 46.5705 23.5869C47.0721 23.213 47.6812 23.0193 48.3023 23.0362C48.9782 23.0187 49.6361 23.2592 50.1472 23.7105M49.4997 25.4818C49.4997 24.225 48.7919 23.4932 48.2298 23.4932C48.0874 23.4857 47.9451 23.5093 47.8124 23.5626C47.6798 23.6159 47.5598 23.6975 47.4608 23.802C47.0814 24.2015 46.9356 24.682 46.9356 25.5157C46.8823 26.074 47.0151 26.6342 47.3128 27.1059C47.4148 27.2694 47.5585 27.4016 47.7286 27.4882C47.8986 27.5748 48.0886 27.6127 48.2781 27.5976C49.0837 27.5976 49.4997 26.6489 49.4997 25.4836" fill="#04682A"/>
<path d="M52.9548 23.1292C53.0296 23.0825 53.1127 23.0514 53.1994 23.0377C53.2726 23.0377 53.321 23.0829 53.3459 23.1744L53.444 23.7688H53.5172C53.9398 23.3339 54.5049 23.0732 55.1043 23.0366C55.4819 23.0111 55.8578 23.1069 56.1791 23.3106C56.3895 23.421 56.5646 23.5905 56.6837 23.799C56.8027 24.0075 56.8608 24.2464 56.8511 24.4875V26.1355C56.8511 26.5011 56.8386 27.004 56.8386 27.2321C56.8386 27.4838 56.9851 27.5525 57.1316 27.5525H57.4736C57.5835 27.5525 57.6201 27.5752 57.6201 27.6324V27.8937C57.6201 27.9512 57.5959 27.9736 57.5219 27.9736C57.4245 27.9736 57.058 27.9389 56.2036 27.9389C55.4712 27.9389 55.0802 27.9736 55.0065 27.9736C54.9329 27.9736 54.9084 27.9277 54.9084 27.8362V27.6421C54.9084 27.5734 54.9326 27.5506 55.0549 27.5506H55.2988C55.3969 27.5506 55.494 27.4819 55.5185 27.2765C55.5573 26.92 55.5738 26.5614 55.5679 26.2027V24.8885C55.5679 24.4315 55.5437 24.1339 55.2504 23.9058C55.0427 23.7409 54.7793 23.6668 54.518 23.6997C54.2306 23.6995 53.9528 23.8056 53.7362 23.9984C53.6428 24.1095 53.572 24.2384 53.528 24.3777C53.4839 24.517 53.4676 24.6639 53.4799 24.8097V27.1638C53.4799 27.4147 53.541 27.5521 53.7121 27.5521H53.9318C54.0299 27.5521 54.0541 27.5749 54.0541 27.6548V27.8609C54.0541 27.9288 54.0299 27.9747 53.9559 27.9747C53.882 27.9747 53.541 27.94 52.8079 27.94C52.0506 27.94 51.6599 27.9747 51.5863 27.9747C51.5376 27.9747 51.5131 27.9288 51.5131 27.8609V27.6436C51.5131 27.5749 51.5372 27.5521 51.6346 27.5521H51.8792C52.0257 27.5521 52.1967 27.5069 52.1967 27.324V24.7515C52.1967 24.4095 51.977 24.2258 51.6841 24.0891L51.5859 24.0432C51.5592 24.0388 51.5349 24.025 51.5171 24.0042C51.4993 23.9834 51.4892 23.9569 51.4885 23.9293V23.8378C51.4885 23.7919 51.5372 23.7464 51.6101 23.724L52.9548 23.1292Z" fill="#04682A"/>
<path d="M60.9191 27.3796C60.6231 27.6749 60.2573 27.8872 59.8572 27.996C59.6016 28.0604 59.3383 28.0873 59.0753 28.0759C58.9547 28.0741 58.8357 28.0464 58.7262 27.9947C58.6167 27.943 58.5191 27.8684 58.4397 27.7757C58.3603 27.6831 58.3008 27.5744 58.2653 27.4568C58.2297 27.3393 58.2187 27.2154 58.2331 27.0932C58.2331 26.5675 58.4777 26.0538 59.3573 25.6879C59.8677 25.4828 60.3652 25.2459 60.847 24.9785V24.3848C60.8516 24.1556 60.7826 23.9311 60.6503 23.7456C60.4752 23.612 60.257 23.5507 60.0395 23.5742C59.7894 23.5747 59.5443 23.6461 59.3317 23.7803C59.1599 23.8942 59.2822 24.066 59.2822 24.3404C59.2822 24.7511 59.0625 25.0035 58.5498 25.0035C58.497 25.0082 58.4437 25.0016 58.3935 24.9841C58.3433 24.9667 58.2972 24.9388 58.2581 24.9022C58.219 24.8656 58.1878 24.8211 58.1665 24.7716C58.1452 24.7221 58.1342 24.6685 58.1342 24.6144C58.1472 24.4239 58.205 24.2393 58.3027 24.0763C58.4004 23.9133 58.5352 23.7767 58.6956 23.678C59.2733 23.26 59.9646 23.0361 60.673 23.0377C61.3567 23.0377 61.5772 23.1751 61.7965 23.3581C61.9074 23.4682 61.9916 23.6031 62.0425 23.7522C62.0933 23.9012 62.1094 24.0603 62.0895 24.2168L62.1136 26.022V26.5705C62.1136 27.1877 62.2118 27.3703 62.4311 27.3703C62.5057 27.3726 62.5799 27.3573 62.6477 27.3255C62.7156 27.2938 62.7753 27.2465 62.8222 27.1873C62.8709 27.1186 62.8955 27.1186 62.9445 27.1421L63.091 27.2336C63.1405 27.2564 63.1643 27.3023 63.1159 27.4166C63.0076 27.6227 62.845 27.794 62.6463 27.911C62.4477 28.028 62.221 28.0862 61.9917 28.0789C61.7692 28.0955 61.5476 28.0361 61.3619 27.91C61.1762 27.7839 61.0371 27.5983 60.9664 27.3826L60.9191 27.3796ZM60.8459 25.4008C60.3079 25.7211 59.5019 25.9153 59.5019 26.749C59.5019 27.2179 59.7707 27.4461 60.0641 27.4461C60.4061 27.4233 60.8459 27.1033 60.8459 26.8976V25.4008Z" fill="#04682A"/>
<path d="M64.3851 23.5623C64.3851 22.7625 64.361 21.7799 64.3364 21.483C64.3115 21.094 64.1043 20.9114 63.7139 20.7972L63.47 20.7285C63.3968 20.7049 63.3968 20.6825 63.3968 20.637V20.4996C63.3968 20.4768 63.421 20.4316 63.4949 20.4081C64.1236 20.2441 64.7364 20.0224 65.3259 19.7458C65.4126 19.7123 65.5028 19.6892 65.5947 19.6771C65.6679 19.6771 65.717 19.7222 65.717 19.8824C65.6928 20.4996 65.6683 22.8761 65.6683 23.5041V25.1499C65.6683 25.6755 65.6683 26.8408 65.6925 27.1836C65.7166 27.3889 65.7412 27.5491 66.01 27.5491H66.4739C66.5962 27.5491 66.6204 27.5726 66.6204 27.6518V27.8579C66.6204 27.9266 66.5962 27.9718 66.5472 27.9718C66.4497 27.9718 65.9122 27.9378 65.0575 27.9378C64.1292 27.9378 63.6407 27.9718 63.5429 27.9718C63.4697 27.9718 63.4455 27.9266 63.4455 27.8579V27.6402C63.4455 27.5722 63.4697 27.5487 63.6165 27.5487H64.0801C64.2024 27.5487 64.3859 27.4573 64.3859 27.138V23.5612L64.3851 23.5623Z" fill="#04682A"/>
<path d="M77.0265 25.5848C77.0507 25.6076 77.0507 25.63 77.0507 25.6987C77.002 25.7674 76.5135 27.6645 76.4399 27.9729C76.1224 27.9617 72.6051 27.9389 71.3593 27.9389C70.2607 27.9389 69.8213 27.9729 69.6748 27.9729C69.5767 27.9729 69.5767 27.9501 69.5767 27.8702V27.6088C69.5767 27.5401 69.5767 27.5174 69.6499 27.5174H70.1384C70.5779 27.5174 70.6511 27.3572 70.6511 27.2086C70.6511 27.0032 70.6998 24.147 70.6998 23.4611V22.8189C70.6998 22.0871 70.6756 20.8774 70.6511 20.6818C70.6269 20.3831 70.5779 20.2711 70.2607 20.2711H69.7481C69.7217 20.2705 69.6967 20.2593 69.6784 20.2399C69.6601 20.2205 69.6502 20.1945 69.6507 20.1677V19.9063C69.6507 19.8376 69.6748 19.8148 69.7481 19.8148C69.8704 19.8148 70.3102 19.8488 71.4326 19.8488C72.7509 19.8488 73.2635 19.8148 73.362 19.8148C73.4605 19.8148 73.4843 19.86 73.4843 19.9175V20.1789C73.4843 20.224 73.4602 20.2703 73.362 20.2703H72.7029C72.3367 20.2703 72.2873 20.3842 72.2873 20.6926C72.2873 20.8528 72.2385 22.5673 72.2385 23.367V24.3497C72.2385 24.5551 72.2385 27.0234 72.2873 27.5151H72.9717C73.6554 27.5151 74.535 27.5151 75.0224 27.4576C75.706 27.3661 76.4871 25.9955 76.6592 25.5613C76.7079 25.5154 76.7325 25.4926 76.8057 25.5154L77.0265 25.5848Z" fill="#04682A"/>
<path d="M80.5028 27.3796C80.2068 27.6749 79.841 27.8872 79.4409 27.996C79.1853 28.0604 78.922 28.0873 78.659 28.0759C78.5384 28.0741 78.4194 28.0464 78.3099 27.9947C78.2004 27.943 78.1028 27.8684 78.0234 27.7757C77.944 27.6831 77.8845 27.5744 77.849 27.4568C77.8134 27.3393 77.8024 27.2154 77.8168 27.0932C77.8168 26.5675 78.0614 26.0538 78.941 25.6879C79.4511 25.4827 79.9482 25.2455 80.4296 24.9777V24.3841C80.4349 24.1546 80.3664 23.9297 80.2344 23.7438C80.0593 23.61 79.8411 23.5488 79.6236 23.5724C79.3733 23.573 79.128 23.6444 78.915 23.7785C78.744 23.8924 78.8663 24.0641 78.8663 24.3385C78.8663 24.7492 78.6466 25.0016 78.1339 25.0016C78.081 25.0063 78.0278 24.9997 77.9776 24.9822C77.9274 24.9648 77.8812 24.9369 77.8422 24.9003C77.8031 24.8637 77.7719 24.8193 77.7505 24.7697C77.7292 24.7202 77.7182 24.6667 77.7183 24.6126C77.7313 24.422 77.7891 24.2374 77.8868 24.0744C77.9845 23.9115 78.1192 23.7749 78.2797 23.6762C78.8574 23.2581 79.5487 23.0342 80.2571 23.0359C80.9408 23.0359 81.1612 23.1733 81.3806 23.3562C81.4915 23.4663 81.5757 23.6012 81.6265 23.7503C81.6774 23.8994 81.6935 24.0584 81.6735 24.2149L81.6977 26.0202V26.5686C81.6977 27.1858 81.7958 27.3684 82.0152 27.3684C82.0898 27.3706 82.1639 27.3553 82.2317 27.3235C82.2996 27.2918 82.3593 27.2445 82.4063 27.1854C82.455 27.1167 82.4795 27.1167 82.5286 27.1403L82.6751 27.2317C82.7245 27.2545 82.7483 27.3004 82.7 27.4147C82.5918 27.6208 82.4292 27.792 82.2308 27.909C82.0323 28.026 81.8057 28.0842 81.5765 28.077C81.354 28.0936 81.1324 28.0341 80.9468 27.908C80.7611 27.782 80.6219 27.5964 80.5512 27.3807L80.5028 27.3796ZM80.4296 25.4008C79.8924 25.7211 79.0857 25.9153 79.0857 26.749C79.0857 27.2179 79.3544 27.4461 79.6478 27.4461C79.9901 27.4251 80.4296 27.1059 80.4296 26.8994V25.4008Z" fill="#04682A"/>
<path d="M83.7605 28.0419C83.7115 28.0682 83.6564 28.08 83.6012 28.0759L83.4302 28.0307C83.3815 28.0072 83.3815 27.9848 83.3815 27.9393C83.4056 27.7791 83.4181 26.8192 83.4181 25.9978L83.3932 21.8273C83.3932 21.0503 83.2592 20.9125 82.8681 20.7986L82.7216 20.7527C82.5751 20.7299 82.5498 20.7075 82.5498 20.6612V20.5474C82.5498 20.5246 82.574 20.4787 82.6721 20.4559C83.1607 20.2957 83.8692 19.9989 84.26 19.8163C84.3698 19.7419 84.4952 19.6949 84.6262 19.6789C84.7243 19.6789 84.7726 19.7476 84.7485 19.8619C84.7485 19.9533 84.699 21.256 84.6873 22.2514L84.6749 23.6228C85.1475 23.2329 85.7402 23.0263 86.348 23.0396C86.6993 23.0404 87.0452 23.1282 87.3559 23.2954C87.6666 23.4626 87.9328 23.7042 88.1317 23.9995C88.3881 24.4283 88.5115 24.9261 88.4855 25.4276C88.4409 26.1309 88.141 26.7921 87.6442 27.2821C87.1475 27.7722 86.4896 28.0561 85.7987 28.0785C85.2625 28.0966 84.7289 27.9946 84.2354 27.7798L83.7605 28.0419ZM84.676 25.4709C84.676 26.4309 84.7001 26.7964 84.847 27.1391C84.9405 27.2978 85.0732 27.4288 85.2319 27.5189C85.3905 27.609 85.5695 27.6552 85.7511 27.6529C85.97 27.6622 86.1876 27.6135 86.3824 27.5114C86.5773 27.4093 86.7429 27.2573 86.8629 27.0704C87.0973 26.688 87.2083 26.2403 87.1804 25.7902C87.1804 24.4647 86.5945 23.7221 85.6288 23.7221C85.2819 23.7195 84.9451 23.8408 84.6767 24.0648L84.676 25.4709Z" fill="#04682A"/>
<path d="M93.7807 23.7113C94.0414 23.9316 94.2518 24.2073 94.3973 24.5191C94.5427 24.8309 94.6197 25.1712 94.6229 25.5165C94.6038 26.1748 94.332 26.7992 93.866 27.2553C93.5954 27.5251 93.2745 27.7368 92.9223 27.8779C92.5701 28.019 92.1936 28.0866 91.8153 28.0767C91.4465 28.0982 91.0777 28.0356 90.7356 27.8935C90.3936 27.7514 90.0869 27.5334 89.8378 27.2553C89.61 27.0254 89.4332 26.7483 89.3194 26.4427C89.2057 26.1371 89.1577 25.8102 89.1787 25.484C89.1977 25.1093 89.2999 24.7439 89.4775 24.4153C89.6551 24.0867 89.9035 23.8035 90.204 23.5869C90.7066 23.2133 91.3166 23.0204 91.9383 23.0385C92.6142 23.0209 93.2722 23.2614 93.7832 23.7128M93.1358 25.484C93.1358 24.2273 92.4279 23.4955 91.8658 23.4955C91.7234 23.4879 91.5811 23.5116 91.4485 23.5648C91.3158 23.6181 91.1959 23.6997 91.0968 23.8042C90.7174 24.2037 90.5717 24.6843 90.5717 25.518C90.519 26.0757 90.6521 26.6352 90.9496 27.1063C91.0516 27.2698 91.1952 27.4019 91.3652 27.4885C91.5352 27.5751 91.7251 27.613 91.9145 27.598C92.7202 27.598 93.1358 26.6493 93.1358 25.484Z" fill="#04682A"/>
<path d="M95.8716 25.0027C95.8716 24.477 95.7735 24.2933 95.4077 24.1115L95.1879 23.9969C95.1147 23.9741 95.0898 23.9517 95.0898 23.9062V23.8375C95.0898 23.7915 95.114 23.7688 95.1879 23.7348L96.6659 23.0829C96.7281 23.0571 96.794 23.0418 96.8611 23.0377C96.9343 23.0377 96.9592 23.1064 96.9709 23.1744L97.0808 23.9958H97.1295C97.5451 23.3562 98.0585 22.9679 98.5943 22.9679C98.6736 22.9591 98.7539 22.9673 98.83 22.9919C98.9062 23.0165 98.9764 23.057 99.0363 23.1108C99.0962 23.1646 99.1445 23.2306 99.178 23.3044C99.2115 23.3783 99.2296 23.4585 99.2311 23.5399C99.2126 23.7065 99.1357 23.8607 99.0146 23.9741C98.8935 24.0875 98.7363 24.1525 98.5719 24.1571C98.4286 24.157 98.2869 24.1258 98.1563 24.0656C98.054 24.0005 97.9347 23.9686 97.8143 23.9741C97.7086 23.982 97.6065 24.0163 97.5171 24.0742C97.4276 24.132 97.3536 24.2116 97.3016 24.3057C97.2091 24.4775 97.1588 24.6697 97.1551 24.8657V27.0712C97.1551 27.4367 97.2525 27.5513 97.4972 27.5513H98.0344C98.1076 27.5513 98.1325 27.5741 98.1325 27.6312V27.8926C98.1325 27.9493 98.1083 27.9725 98.0472 27.9725C97.9619 27.9725 97.4246 27.9378 96.5326 27.9378C95.6779 27.9378 95.2015 27.9725 95.1044 27.9725C95.0433 27.9725 95.0184 27.949 95.0184 27.8926V27.6409C95.0184 27.5722 95.0433 27.5495 95.1283 27.5495H95.5556C95.7508 27.5495 95.8731 27.458 95.8731 27.2407L95.8716 25.0027Z" fill="#04682A"/>
<path d="M102.32 27.3796C102.024 27.6749 101.658 27.8872 101.258 27.996C101.002 28.0604 100.739 28.0873 100.476 28.0759C100.355 28.0741 100.237 28.0464 100.127 27.9947C100.018 27.943 99.9199 27.8684 99.8405 27.7757C99.7611 27.6831 99.7016 27.5744 99.6661 27.4568C99.6305 27.3393 99.6195 27.2154 99.6339 27.0932C99.6339 26.5675 99.8785 26.0538 100.758 25.6879C101.268 25.4828 101.766 25.2459 102.248 24.9785V24.3848C102.253 24.1554 102.185 23.9305 102.053 23.7445C101.877 23.6108 101.659 23.5496 101.442 23.5731C101.192 23.5736 100.947 23.645 100.734 23.7792C100.562 23.8931 100.685 24.0648 100.685 24.3393C100.685 24.75 100.465 25.0024 99.9521 25.0024C99.8993 25.0069 99.8461 25.0002 99.796 24.9828C99.7459 24.9653 99.6999 24.9373 99.6608 24.9008C99.6218 24.8642 99.5907 24.8198 99.5694 24.7703C99.5481 24.7208 99.5372 24.6674 99.5372 24.6133C99.5502 24.4228 99.608 24.2382 99.7057 24.0752C99.8034 23.9122 99.9382 23.7756 100.099 23.6769C100.676 23.2588 101.368 23.035 102.076 23.0366C102.76 23.0366 102.98 23.174 103.2 23.3569C103.31 23.4671 103.395 23.602 103.445 23.751C103.496 23.9001 103.512 24.0592 103.492 24.2157L103.517 26.0209V26.5694C103.517 27.1866 103.615 27.3691 103.834 27.3691C103.909 27.3714 103.983 27.3561 104.051 27.3244C104.119 27.2927 104.178 27.2454 104.225 27.1862C104.274 27.1175 104.298 27.1175 104.348 27.141L104.494 27.2325C104.543 27.2553 104.567 27.3012 104.519 27.4154C104.411 27.6216 104.248 27.7929 104.049 27.9099C103.851 28.0269 103.624 28.0851 103.395 28.0778C103.172 28.0944 102.951 28.035 102.765 27.9089C102.579 27.7828 102.44 27.5972 102.369 27.3815L102.32 27.3796ZM102.247 25.4008C101.709 25.7211 100.903 25.9153 100.903 26.749C100.903 27.2179 101.172 27.4461 101.465 27.4461C101.807 27.4233 102.247 27.1033 102.247 26.8976V25.4008Z" fill="#04682A"/>
<path d="M104.625 23.8027C104.527 23.8027 104.454 23.7576 104.454 23.6426C104.454 23.5511 104.527 23.4831 104.686 23.4256C105.341 23.0772 105.912 22.5854 106.359 21.9856C106.377 21.9491 106.405 21.9188 106.44 21.8985C106.475 21.8783 106.515 21.8689 106.555 21.8717C106.575 21.8707 106.596 21.8742 106.615 21.8821C106.634 21.8899 106.651 21.9019 106.665 21.9171C106.679 21.9324 106.689 21.9505 106.695 21.9704C106.702 21.9902 106.704 22.0112 106.701 22.0319L106.653 23.1632H108.264C108.337 23.1632 108.362 23.2084 108.35 23.2546L108.228 23.7344C108.215 23.7803 108.178 23.8031 108.105 23.8031H106.628C106.604 24.2833 106.591 24.8317 106.591 25.3339V26.3618C106.591 27.253 106.994 27.4356 107.239 27.4356C107.481 27.4386 107.722 27.3921 107.947 27.2989C108.032 27.2642 108.069 27.2642 108.093 27.3217L108.167 27.4584C108.177 27.4868 108.178 27.518 108.17 27.5471C108.161 27.5762 108.143 27.6014 108.118 27.6185C107.663 27.9272 107.126 28.0869 106.58 28.0763C105.847 28.0763 105.298 27.5274 105.298 27.0477C105.298 26.637 105.335 25.7222 105.335 25.288V23.8027H104.625Z" fill="#04682A"/>
<path d="M113.014 23.7113C113.275 23.9316 113.485 24.2073 113.631 24.5191C113.776 24.8309 113.853 25.1712 113.856 25.5165C113.837 26.1748 113.565 26.7992 113.099 27.2553C112.829 27.5251 112.508 27.7368 112.156 27.8779C111.803 28.019 111.427 28.0866 111.049 28.0767C110.68 28.0982 110.311 28.0356 109.969 27.8935C109.627 27.7514 109.32 27.5334 109.071 27.2553C108.843 27.0254 108.666 26.7483 108.553 26.4427C108.439 26.1371 108.391 25.8102 108.412 25.484C108.431 25.1093 108.533 24.7439 108.711 24.4153C108.888 24.0867 109.137 23.8035 109.437 23.5869C109.939 23.2133 110.547 23.0196 111.168 23.0362C111.844 23.0187 112.502 23.2592 113.013 23.7105M112.365 25.4818C112.365 24.225 111.658 23.4932 111.095 23.4932C110.953 23.4857 110.811 23.5093 110.678 23.5626C110.545 23.6159 110.425 23.6975 110.326 23.802C109.947 24.2015 109.801 24.682 109.801 25.5157C109.748 26.0741 109.881 26.6343 110.179 27.1059C110.281 27.2694 110.425 27.4016 110.595 27.4882C110.765 27.5748 110.955 27.6127 111.144 27.5976C111.95 27.5976 112.366 26.6489 112.366 25.4836" fill="#04682A"/>
<path d="M115.105 25.0027C115.105 24.477 115.007 24.2933 114.641 24.1115L114.421 23.9969C114.348 23.9741 114.323 23.9517 114.323 23.9062V23.8375C114.323 23.7915 114.347 23.7688 114.421 23.7348L115.899 23.0829C115.961 23.0571 116.027 23.0418 116.094 23.0377C116.168 23.0377 116.192 23.1064 116.204 23.1744L116.314 23.9958H116.363C116.778 23.3562 117.292 22.9679 117.828 22.9679C117.907 22.9594 117.987 22.9678 118.062 22.9924C118.138 23.0171 118.208 23.0575 118.268 23.1112C118.328 23.1649 118.376 23.2306 118.409 23.3042C118.443 23.3778 118.461 23.4577 118.462 23.5388C118.444 23.7054 118.367 23.8596 118.246 23.973C118.125 24.0864 117.968 24.1513 117.803 24.156C117.66 24.1558 117.518 24.1247 117.388 24.0645C117.285 23.9994 117.166 23.9675 117.046 23.973C116.94 23.9808 116.838 24.0152 116.748 24.0731C116.659 24.1309 116.585 24.2104 116.533 24.3046C116.44 24.4764 116.39 24.6686 116.387 24.8646V27.0701C116.387 27.4356 116.484 27.5502 116.729 27.5502H117.266C117.339 27.5502 117.364 27.573 117.364 27.6301V27.8915C117.364 27.9482 117.34 27.9714 117.279 27.9714C117.193 27.9714 116.656 27.9367 115.764 27.9367C114.909 27.9367 114.433 27.9714 114.336 27.9714C114.275 27.9714 114.25 27.9479 114.25 27.8915V27.6398C114.25 27.5711 114.275 27.5484 114.36 27.5484H114.787C114.982 27.5484 115.104 27.4569 115.104 27.2396L115.105 25.0027Z" fill="#04682A"/>
<path d="M118.672 30.43C118.676 30.2752 118.74 30.1283 118.85 30.0213C118.96 29.9143 119.106 29.856 119.258 29.8591C119.445 29.8659 119.628 29.9125 119.795 29.9958C119.846 30.0205 119.901 30.0314 119.957 30.0274C120.013 30.0234 120.067 30.0047 120.113 29.973C120.482 29.3964 120.793 28.7835 121.041 28.1435C120.968 27.8007 119.552 24.2366 119.467 24.0417C119.332 23.743 119.21 23.5616 118.966 23.5616H118.721C118.648 23.5616 118.623 23.5283 118.623 23.4708V23.2188C118.623 23.174 118.648 23.1389 118.721 23.1389C118.819 23.1389 119.112 23.1744 120.016 23.1744C120.724 23.1744 121.09 23.1389 121.237 23.1389C121.31 23.1389 121.335 23.1624 121.335 23.2311V23.4828C121.335 23.5287 121.311 23.5623 121.25 23.5623H121.067C120.945 23.5623 120.847 23.6317 120.884 23.8031C120.92 24.0312 121.653 26.3618 121.775 26.6134H121.824C122.044 26.1785 122.899 24.2373 122.959 23.9965C123.032 23.7004 122.922 23.5623 122.703 23.5623H122.507C122.433 23.5623 122.409 23.5291 122.409 23.4828V23.2311C122.409 23.1744 122.433 23.1389 122.507 23.1389C122.653 23.1389 122.898 23.1744 123.557 23.1744C123.973 23.1744 124.266 23.1389 124.376 23.1389C124.437 23.1389 124.461 23.1744 124.461 23.2311V23.4712C124.461 23.5399 124.437 23.5619 124.388 23.5619H124.241C124.159 23.5599 124.076 23.5763 124.001 23.61C123.925 23.6436 123.857 23.6937 123.802 23.7568C123.557 24.0555 122.727 25.7674 121.848 27.6185C121.237 28.8525 120.724 29.9267 120.504 30.2922C120.409 30.5105 120.256 30.6971 120.062 30.8305C119.867 30.964 119.64 31.0389 119.406 31.0468C118.966 31.0468 118.673 30.7951 118.673 30.4296" fill="#04682A"/>
<path d="M35.4251 2.5138C36.3142 3.25736 37.0257 4.19742 37.5058 5.26281C37.9858 6.32819 38.2219 7.49098 38.196 8.66314C38.2219 10.3176 37.6896 11.9309 36.6884 13.2331C35.3844 14.895 33.6325 16.1827 30.5759 16.1827C28.9504 16.1412 27.3635 15.6688 25.9714 14.8121C24.5249 13.9186 22.9968 11.6545 22.9968 8.66314C23.0267 6.77787 23.6881 4.95975 24.8713 3.51069C26.6642 1.26788 28.8647 0.851951 30.6169 0.851951C32.3642 0.793609 34.0728 1.38416 35.4251 2.5138ZM27.6013 2.92973C26.3585 4.15549 25.766 6.29488 25.766 7.95673C25.766 13.3578 29.028 15.2691 30.7392 15.2691C34.8545 15.2691 35.5067 10.6162 35.5067 8.87073C35.5067 4.34255 32.4915 1.7667 30.5356 1.7667C30.1694 1.7667 28.987 1.55873 27.6013 2.92973Z" fill="#04682A"/>
<path d="M41.2442 11.2297C41.1117 11.618 40.3006 14.0299 40.2189 14.4869C40.194 14.6035 40.183 14.7227 40.1863 14.842C40.1863 15.0608 40.4511 15.2463 40.7825 15.2463H41.4782C41.6108 15.2463 41.6441 15.2803 41.6441 15.3315V15.753C41.6441 15.8542 41.6108 15.9221 41.5116 15.9221C41.2794 15.9221 40.5847 15.871 39.4243 15.871C38.1993 15.871 37.8353 15.9221 37.6032 15.9221C37.5039 15.9221 37.5039 15.8202 37.5039 15.7026V15.3815C37.5039 15.2803 37.5373 15.2463 37.6032 15.2463H38.1001C38.5637 15.2463 38.8618 15.0104 39.1599 14.4869C39.3254 14.183 40.517 11.1453 41.0135 9.72686C41.1296 9.39083 42.4706 5.74416 42.6358 5.30471C42.6691 5.13595 42.7683 4.83203 42.6691 4.73085C42.6165 4.67517 42.5819 4.60443 42.5699 4.52811C42.5699 4.46091 42.6025 4.39295 42.7354 4.35935C43.3252 4.17609 43.8797 3.89065 44.3745 3.51554C44.4737 3.41436 44.54 3.34678 44.6224 3.34678C44.7216 3.34678 44.7883 3.54877 44.8212 3.64995C45.1193 4.69538 46.4101 8.47795 46.7082 9.55735C47.1055 10.8735 48.1653 14.0135 48.3967 14.469C48.4861 14.6854 48.6324 14.8724 48.8194 15.0094C49.0064 15.1464 49.2269 15.2282 49.4565 15.2456H49.9842C50.0834 15.2456 50.1164 15.2796 50.1164 15.3639V15.719C50.1164 15.8194 50.0838 15.9217 49.9509 15.9217C49.6528 15.9217 49.3221 15.8706 47.501 15.8706C46.1095 15.8706 45.547 15.9217 45.183 15.9217C45.0508 15.9217 45.0175 15.8198 45.0175 15.719V15.3815C45.0175 15.2803 45.0508 15.2463 45.1501 15.2463H45.58C46.0436 15.2463 46.1761 15.0776 46.0769 14.6221C45.9443 14.0142 45.2819 11.8535 45.0834 11.2293L41.2442 11.2297ZM44.919 10.5546C44.7535 10.0651 43.6282 6.21684 43.5275 5.87895C43.4615 5.67621 43.4282 5.57503 43.3616 5.57503C43.2631 5.57503 43.1961 5.64298 43.147 5.79457C43.0811 6.01411 41.5907 10.1663 41.4746 10.5546H44.919Z" fill="#04682A"/>
<path d="M54.2324 11.3137C54.2324 12.1575 54.265 14.6221 54.2818 14.8748C54.2825 14.9248 54.2928 14.9741 54.3123 15.0199C54.3319 15.0658 54.3601 15.1071 54.3955 15.1417C54.4309 15.1763 54.4727 15.2033 54.5185 15.2212C54.5642 15.2391 54.613 15.2475 54.662 15.246H55.2914C55.3574 15.246 55.4236 15.2799 55.4236 15.3311V15.7866C55.4236 15.8538 55.3918 15.9217 55.3251 15.9217C55.1256 15.9217 54.6294 15.8706 53.206 15.8706C51.7826 15.8706 51.2527 15.9217 51.0875 15.9217C51.0216 15.9217 50.9876 15.8878 50.9876 15.8034V15.3475C50.9858 15.3337 50.9872 15.3197 50.9916 15.3066C50.996 15.2934 51.0033 15.2815 51.013 15.2717C51.0227 15.2619 51.0344 15.2545 51.0474 15.2501C51.0603 15.2457 51.074 15.2444 51.0875 15.2463H51.683C51.9811 15.2463 52.1136 15.1115 52.1305 14.926C52.1466 14.7908 52.1806 11.7188 52.1806 9.62605V8.64708C52.1806 8.34316 52.1466 5.10197 52.1466 4.95076C52.1466 4.74802 52.0473 4.54566 51.6504 4.54566H51.1524C51.0538 4.54566 51.0209 4.51168 51.0209 4.4273V3.97142C51.0209 3.90422 51.0535 3.87024 51.1524 3.87024C51.3512 3.87024 51.8481 3.92139 53.2715 3.92139C54.5631 3.92139 55.0933 3.87024 55.3248 3.87024C55.4233 3.87024 55.457 3.90422 55.457 3.9886V4.41013C55.457 4.51131 55.4236 4.54529 55.3248 4.54529H54.7953C54.4631 4.54529 54.2976 4.64647 54.2976 5.03477C54.2976 5.30471 54.2324 7.93806 54.2324 8.74827V9.49052H54.5309C54.7413 9.48718 54.9427 9.40258 55.0944 9.2538C55.4079 8.98386 58.2891 5.32114 58.4711 5.06837C58.7033 4.73048 58.5037 4.52774 58.2056 4.52774H57.9584C57.8918 4.52774 57.8749 4.49451 57.8749 4.40938V4.0054C57.8749 3.90422 57.9075 3.87024 57.9742 3.87024C58.173 3.87024 58.8344 3.92139 59.9282 3.92139C60.5895 3.92139 61.1531 3.87024 61.3512 3.87024C61.4505 3.87024 61.4838 3.90422 61.4838 3.9886V4.41013C61.4854 4.42829 61.4831 4.4466 61.477 4.46376C61.4709 4.48091 61.4612 4.49649 61.4486 4.50939C61.4359 4.52229 61.4207 4.53219 61.4038 4.53839C61.387 4.5446 61.369 4.54695 61.3512 4.54529H61.0217C60.6926 4.55129 60.3717 4.65058 60.0948 4.83203C59.3159 5.35474 56.9822 8.10645 56.353 8.95026C57.0159 9.79481 60.3929 14.2521 60.8887 14.8416C61.0131 14.9816 61.1672 15.0907 61.3392 15.1608C61.5113 15.2309 61.6967 15.26 61.8815 15.246H62.2477C62.2642 15.2439 62.2809 15.2454 62.2968 15.2504C62.3127 15.2554 62.3274 15.2638 62.3399 15.2749C62.3524 15.2861 62.3625 15.2998 62.3694 15.3152C62.3764 15.3306 62.38 15.3474 62.3802 15.3643V15.7866C62.3802 15.8878 62.3462 15.9217 62.2477 15.9217C62.0822 15.9217 61.486 15.8706 59.9623 15.8706C58.5725 15.8706 57.9438 15.9217 57.7116 15.9217C57.6457 15.9217 57.6117 15.8878 57.6117 15.7866V15.3643C57.6099 15.3505 57.6113 15.3365 57.6157 15.3234C57.6201 15.3102 57.6274 15.2983 57.6371 15.2885C57.6468 15.2787 57.6585 15.2713 57.6715 15.2669C57.6844 15.2625 57.6981 15.2612 57.7116 15.2631H57.9438C57.9947 15.264 58.045 15.2514 58.0897 15.2264C58.1343 15.2015 58.1719 15.165 58.1985 15.1208C58.2252 15.0765 58.24 15.026 58.2417 14.9741C58.2433 14.9221 58.2316 14.8707 58.2078 14.8248C58.0423 14.4869 55.3603 10.5714 55.0952 10.3007C55.0216 10.2247 54.9338 10.1647 54.837 10.1241C54.7401 10.0836 54.6363 10.0634 54.5316 10.0648H54.2342L54.2324 11.3137Z" fill="#04682A"/>
<path d="M71.3831 10.4284C71.3831 11.6751 71.4241 14.0019 71.4651 14.3133C71.5263 14.7285 71.6687 15.1026 71.9947 15.1026H73.0134C73.1357 15.1026 73.1767 15.1649 73.1767 15.2478V15.7466C73.1767 15.8919 73.1156 15.9333 72.9523 15.9333C72.6875 15.9333 72.2803 15.871 70.1611 15.871C68.1643 15.871 67.675 15.9333 67.4714 15.9333C67.3499 15.9333 67.3088 15.871 67.3088 15.7466V15.2683C67.3088 15.1649 67.3499 15.1026 67.4311 15.1026H68.124C68.5722 15.1026 68.8981 14.9779 68.8981 14.4167C68.9384 12.3397 68.9384 10.3873 68.9384 8.43389V2.9708C68.9384 2.26439 68.6535 1.9321 68.2866 1.9321H67.4923C67.3901 1.9321 67.3499 1.89103 67.3499 1.80739V1.24735C67.3499 1.14392 67.3901 1.10211 67.4923 1.10211C67.6347 1.10211 68.2866 1.16446 70.2834 1.16446C71.4245 1.16446 73.299 1.10211 73.9088 1.10211C75.2609 1.05639 76.5819 1.5227 77.6168 2.41113C77.9496 2.69887 78.2195 3.05461 78.4091 3.45534C78.5986 3.85607 78.7036 4.29289 78.7173 4.73757C78.7173 7.35449 77.1686 8.43389 74.9279 8.80726V8.89052C75.4189 9.07911 75.8443 9.41168 76.1502 9.84633C76.3949 10.1786 77.6579 12.1317 77.8204 12.3811C78.3579 13.1998 78.936 13.99 79.5525 14.7486C79.9723 15.0543 80.4863 15.1949 80.9997 15.1444C81.122 15.1444 81.1631 15.2067 81.1631 15.2896V15.7261C81.1631 15.8713 81.122 15.9337 80.9997 15.9337C80.8364 15.9337 80.3069 15.8713 79.0029 15.8713C78.4323 15.8713 77.6586 15.9132 77.2085 15.9337C76.8577 15.5827 76.5558 15.1842 76.3114 14.7494C75.9452 14.1677 75.1502 12.6723 74.9671 12.34C74.7635 11.9667 74.1929 11.0105 73.8685 10.5535C73.3591 9.82654 72.89 9.26575 72.0349 9.26575C71.9529 9.26575 71.6069 9.28703 71.3824 9.30757L71.3831 10.4284ZM71.4241 8.55897C71.6799 8.6051 71.9386 8.6328 72.1983 8.64185C75.3772 8.64185 76.0287 6.02493 76.0287 5.06912C76.0438 4.2032 75.7214 3.36654 75.1322 2.74268C74.3771 2.11178 73.4172 1.79292 72.4425 1.84921C72.1919 1.82464 71.9393 1.86764 71.7101 1.97392C71.6251 2.04705 71.5585 2.13991 71.516 2.24469C71.4734 2.34948 71.4561 2.46314 71.4655 2.57615L71.4241 8.55897Z" fill="#04682A"/>
<path d="M85.7639 10.4026C85.7639 10.5714 85.7972 14.4533 85.7972 14.6392C85.7972 15.1799 86.062 15.2471 86.4593 15.2471H87.1551C87.1716 15.2448 87.1884 15.2462 87.2044 15.2512C87.2204 15.2561 87.2351 15.2644 87.2477 15.2756C87.2602 15.2868 87.2703 15.3006 87.2772 15.3161C87.2841 15.3316 87.2876 15.3484 87.2877 15.3654V15.787C87.2877 15.8881 87.2217 15.9221 87.1221 15.9221C86.9233 15.9221 86.2612 15.871 84.7053 15.871C83.0501 15.871 82.3213 15.9221 82.1558 15.9221C82.0566 15.9221 82.0236 15.8881 82.0236 15.8038V15.3483C82.0236 15.2803 82.0562 15.2471 82.1558 15.2471H82.8179C83.1493 15.2471 83.5137 15.2131 83.5796 14.7576C83.6129 14.5209 83.6455 10.8746 83.6455 9.96357V8.78112C83.6455 8.37602 83.6129 5.33757 83.5961 5.1184C83.5466 4.7133 83.3807 4.54454 82.9171 4.54454H82.0562C81.957 4.54454 81.9244 4.51056 81.9244 4.42618V3.9886C81.9244 3.90422 81.957 3.87024 82.0236 3.87024C82.2225 3.87024 83.0826 3.92139 84.7049 3.92139C86.2938 3.92139 86.8241 3.87024 87.0555 3.87024C87.1547 3.87024 87.1881 3.93819 87.1881 4.02257V4.41087C87.1898 4.42905 87.1875 4.44739 87.1814 4.46458C87.1754 4.48176 87.1657 4.49737 87.153 4.51029C87.1403 4.5232 87.125 4.5331 87.1082 4.53928C87.0913 4.54546 87.0733 4.54777 87.0555 4.54603H86.4267C86.0627 4.54603 85.798 4.68082 85.798 5.00154C85.798 5.1703 85.7647 8.88454 85.7647 9.08616L85.7639 10.4026Z" fill="#04682A"/>
<path d="M90.1407 8.10682C90.1407 7.66849 90.0748 5.27186 90.0414 5.01797C90.0088 4.61287 89.7767 4.54529 89.446 4.54529H88.5518C88.5352 4.54739 88.5185 4.54591 88.5026 4.54094C88.4867 4.53597 88.4719 4.52762 88.4594 4.51644C88.4469 4.50526 88.4368 4.4915 88.4299 4.47608C88.423 4.46065 88.4193 4.4439 88.4192 4.42693V3.97142C88.4192 3.90422 88.4858 3.87024 88.5686 3.87024C89.0487 3.87024 89.9089 3.92139 91.0679 3.92139C91.8962 3.92139 92.7238 3.87024 93.551 3.87024C95.7694 3.87024 97.5572 4.08978 99.0806 5.40627C99.6901 5.92914 100.174 6.58741 100.495 7.33059C100.817 8.07378 100.967 8.88212 100.934 9.69363C100.972 10.5044 100.848 11.3145 100.569 12.0748C100.29 12.835 99.8625 13.5294 99.312 14.1158C97.6901 15.9053 95.1077 15.9221 93.9821 15.9221C93.3526 15.9221 91.664 15.871 90.8364 15.871C89.3794 15.871 88.7173 15.9221 88.4858 15.9221C88.4192 15.9221 88.3866 15.8881 88.3866 15.7698V15.3483C88.3866 15.2803 88.4192 15.2463 88.5188 15.2463H89.479C89.8104 15.2463 89.9759 15.1115 90.025 14.8248C90.0751 14.4869 90.141 10.6726 90.141 9.38971L90.1407 8.10682ZM92.228 9.76083C92.228 9.96357 92.2613 12.8325 92.2613 13.8798C92.2525 14.2201 92.3573 14.5533 92.5587 14.8248C92.7575 15.1451 93.387 15.2803 94.0157 15.2803C94.6792 15.2832 95.3344 15.131 95.9311 14.8354C96.5278 14.5398 97.0501 14.1087 97.458 13.5751C98.2535 12.4578 98.6716 11.1073 98.6496 9.72686C98.632 8.38262 98.1648 7.08478 97.3254 6.04808C96.3442 5.03937 95.0107 4.4687 93.6173 4.46128C93.2558 4.42642 92.8915 4.48444 92.5576 4.63004C92.4465 4.71454 92.3602 4.82829 92.3078 4.95906C92.2554 5.08984 92.2389 5.2327 92.2602 5.37229C92.2269 6.08169 92.2269 8.27596 92.2269 8.5459L92.228 9.76083Z" fill="#04682A"/>
<path d="M113.222 14.2002C113.222 14.4369 113.289 14.6053 113.289 14.74C113.289 14.8748 113.189 14.9428 113.023 15.0107C111.575 15.7847 109.956 16.1681 108.322 16.1245C106.7 16.1245 104.68 15.5506 103.554 14.1665C102.529 13.0188 102.031 11.5679 102.031 9.57415C102.033 8.76955 102.203 7.97455 102.528 7.24145C102.853 6.50836 103.327 5.85378 103.918 5.32077C105.11 4.24025 106.633 3.66676 108.62 3.66676C109.809 3.62827 110.982 3.94521 111.997 4.57851C112.195 4.7301 112.295 4.6797 112.394 4.54454L112.593 4.2746C112.676 4.15624 112.725 4.10583 112.824 4.10583C112.99 4.10583 113.023 4.20627 113.023 4.3418L113.189 7.7174C113.189 7.85256 113.189 7.93694 113.123 7.95411L112.725 8.02132C112.626 8.0385 112.593 7.98734 112.56 7.88616C112.278 7.02626 111.827 6.23375 111.236 5.55673C110.882 5.17837 110.455 4.87827 109.983 4.67511C109.51 4.47194 109.002 4.37005 108.489 4.37578C107.951 4.35262 107.416 4.45984 106.927 4.68862C106.438 4.91741 106.009 5.26125 105.675 5.69189C104.794 6.7596 104.312 8.11136 104.316 9.50694C104.316 11.4985 104.846 13.2197 105.805 14.199C106.145 14.5667 106.556 14.8585 107.012 15.056C107.468 15.2536 107.959 15.3526 108.454 15.3468C109.229 15.4002 110.005 15.2492 110.706 14.9084C111.07 14.7057 111.102 14.2334 111.102 13.3556V12.1235C111.102 11.5157 110.937 11.3469 110.507 11.3469H109.811C109.712 11.3469 109.679 11.2789 109.679 11.1946V10.8063C109.679 10.7051 109.712 10.6715 109.777 10.6715C109.976 10.6715 110.771 10.7219 112.129 10.7219C113.52 10.7219 114.082 10.6715 114.247 10.6715C114.38 10.6715 114.413 10.7047 114.413 10.7891V11.2114C114.413 11.3125 114.38 11.3465 114.281 11.3465H113.718C113.42 11.3465 113.221 11.4813 113.221 11.9708L113.222 14.2002Z" fill="#04682A"/>
<path d="M118.305 10.9765C118.322 11.8875 118.355 13.5419 118.355 13.8458C118.355 14.7236 118.653 15.0615 119.017 15.1627C119.44 15.2617 119.874 15.307 120.308 15.2975C120.606 15.2975 121.368 15.2642 121.7 15.2303C122.194 15.1642 122.662 14.9663 123.057 14.6564C123.356 14.3865 124.282 13.272 124.596 12.8669C124.661 12.7825 124.712 12.7664 124.779 12.7997L125.043 12.9684C125.094 13.0024 125.109 13.0528 125.077 13.1376L124.282 15.6686C124.259 15.747 124.21 15.815 124.144 15.8611C124.077 15.9073 123.998 15.9288 123.918 15.9221C123.752 15.9221 122.461 15.871 116.931 15.871C115.707 15.871 115.111 15.9221 114.813 15.9221C114.714 15.9221 114.68 15.8881 114.68 15.787V15.3815C114.68 15.2803 114.714 15.2467 114.846 15.2467H115.409C116.171 15.2467 116.237 15.1455 116.237 14.5205V8.84982C116.237 7.46538 116.203 5.37304 116.171 5.13632C116.104 4.68082 115.939 4.54603 115.442 4.54603H114.813C114.747 4.54603 114.714 4.51206 114.714 4.42768V3.9886C114.714 3.90422 114.731 3.87024 114.813 3.87024C115.177 3.87024 115.774 3.93819 117.131 3.92139H117.595C118.323 3.92139 122.13 3.88741 122.859 3.88741C123.123 3.88741 123.438 3.87024 123.521 3.87024C123.536 3.86787 123.552 3.86861 123.566 3.87243C123.581 3.87626 123.595 3.88307 123.608 3.89249C123.62 3.90191 123.631 3.91374 123.638 3.92729C123.646 3.94085 123.651 3.95585 123.653 3.97142C123.719 4.19096 124.349 6.48641 124.415 6.65555C124.448 6.75673 124.431 6.80714 124.365 6.84223L124.067 6.97702C124.017 6.99419 123.967 6.97702 123.918 6.89264C123.852 6.79145 122.494 5.23863 122.097 5.00266C121.717 4.7564 121.286 4.60541 120.838 4.56209L118.322 4.49488L118.288 9.37253C118.918 9.3768 119.548 9.34889 120.175 9.2889C120.345 9.26899 120.506 9.20169 120.64 9.09442C120.774 8.98716 120.877 8.8441 120.937 8.68106C121.081 8.38514 121.171 8.06468 121.201 7.7357C121.199 7.71752 121.202 7.69916 121.208 7.68194C121.214 7.66472 121.223 7.64908 121.236 7.63614C121.249 7.6232 121.264 7.6133 121.281 7.60714C121.298 7.60098 121.316 7.59873 121.333 7.60054L121.764 7.63377C121.83 7.63377 121.879 7.66774 121.863 7.76893C121.83 8.03887 121.83 9.15337 121.83 9.5917C121.83 10.2667 121.896 11.0773 121.929 11.4484C121.929 11.5328 121.896 11.5496 121.797 11.5668L121.433 11.634C121.367 11.6512 121.333 11.6168 121.3 11.5157C121.229 11.229 121.141 10.9472 121.035 10.6718C120.963 10.5049 120.848 10.3607 120.702 10.254C120.557 10.1473 120.386 10.082 120.208 10.0648C119.612 9.9968 118.816 9.96282 118.287 9.96282L118.305 10.9765Z" fill="#04682A"/>
<path d="M2.19879 17.0003C2.52922 17.0074 2.84976 16.8852 3.0945 16.6587C3.79723 16.1431 3.98765 15.9086 4.09202 15.6189C4.09202 15.6189 4.181 15.3807 3.67016 14.9677C3.09707 14.5048 1.37669 13.4993 1.37669 13.4993C1.49973 13.4283 1.86995 13.5135 2.19257 13.4194C1.8989 13.2261 1.6268 13.0008 1.38108 12.7473C1.16064 12.5445 0.987689 12.2938 0.875 12.0137C1.30225 12.097 1.70925 12.2652 2.07282 12.5087C2.07282 12.5087 2.75175 12.9303 2.54594 12.3811C2.36285 11.8901 2.23871 11.8434 2.23871 11.8434C2.23871 11.8434 3.39991 11.9532 4.47249 12.1835C5.53445 12.4139 6.94174 13.3391 7.41999 12.785C7.89787 12.2205 8.49916 11.2632 7.22957 10.3843C6.38978 9.77642 5.4302 9.36234 4.41756 9.17086C3.82892 8.9989 3.23103 8.86177 2.62687 8.76015C2.37878 8.70475 2.14796 8.58768 1.95495 8.41936C1.76195 8.25104 1.61274 8.03669 1.5206 7.79538C1.5206 7.79538 2.84366 8.54472 2.97769 7.94211C3.03598 7.67047 3.02032 7.38775 2.93241 7.12452C2.84451 6.86129 2.68769 6.62758 2.47893 6.44865C2.20415 6.15692 1.94964 5.84602 1.71725 5.51822C1.71725 5.51822 1.75899 5.60596 2.44524 5.70042C3.12197 5.796 3.16005 6.32245 3.12197 5.796C3.07657 5.43818 2.95129 5.09574 2.75577 4.79501C2.75577 4.79501 3.23988 5.10192 3.96678 5.49619C4.69367 5.89046 5.48831 6.77721 5.83107 6.38667C6.17969 5.99575 6.57884 5.84267 6.0409 5.00521C5.59882 4.25104 5.22181 3.45914 4.91412 2.63845C5.10966 2.79773 5.34183 2.90349 5.58865 2.94573C5.48693 2.46456 5.33647 1.99546 5.1397 1.54598C5.44147 1.56009 5.72732 1.68812 5.94166 1.90516L6.45433 2.30466C6.54857 2.14489 6.60918 1.96688 6.6323 1.78195C7.04136 2.09137 7.39979 2.46488 7.69427 2.8886C7.90483 3.31872 8.83313 3.94187 8.75623 3.32768C8.72393 2.99795 8.60753 2.68258 8.4186 2.41294C8.63451 2.49932 8.83589 2.61949 9.0155 2.76913C9.0155 2.76913 9.4033 2.68549 9.15245 1.93876C9.00367 1.49608 8.89386 1.04077 8.82434 0.578217C9.2689 0.857494 9.73983 1.89582 10.3111 2.12694C10.3459 1.93055 10.2422 1.50267 10.2763 1.38245C10.4881 1.61903 10.6507 1.89693 10.7543 2.19938C10.8578 2.50182 10.9001 2.82253 10.8787 3.14212C10.8274 4.3059 10.9058 5.39277 10.73 6.35904C10.5312 7.46756 11.2621 9.02487 11.8711 8.28897C12.4804 7.56016 12.6459 6.81343 12.9239 5.81355C13.1433 5.07415 13.5646 4.4137 14.1386 3.90939C14.1386 3.90939 13.8504 4.60646 14.0441 4.82824C14.2638 4.39327 14.4227 4.51797 14.8263 4.00683C15.3304 3.32851 15.9602 2.75768 16.6799 2.32669C16.4086 2.6493 16.1874 3.01245 16.0241 3.40348C15.8483 3.92917 16.0805 4.84317 16.3383 4.40596C16.5236 4.08768 16.7847 3.82223 17.0974 3.63422C17.0974 3.63422 17.1842 4.12669 16.5507 5.54921C16.2101 6.31648 15.2082 7.17074 15.7677 7.5512C16.4152 7.98318 16.8392 8.0881 17.2604 7.86221C17.5195 7.69586 17.815 7.59771 18.1205 7.57658C18.0905 7.74796 17.8668 7.83794 17.8254 8.04404C17.8697 8.15605 18.3124 7.69345 18.8064 7.67067C18.1799 8.88337 17.5247 8.97745 17.5544 9.26681C17.7595 9.40794 18.2103 9.33775 18.4446 9.58343C17.7685 9.68921 17.1064 9.87322 16.4712 10.1319C15.6083 10.6601 14.8924 11.4047 14.3916 12.2948C13.7661 13.3776 13.2842 16.1543 14.6285 14.9521C15.9611 13.7405 17.2054 11.4051 17.2054 11.4051C17.2054 11.4051 17.104 12.5491 17.6229 12.2922C18.1972 11.9176 18.7397 11.4945 19.2448 11.0276C19.141 11.6746 18.9291 12.2986 18.6182 12.8724C18.2791 13.5101 18.0521 13.9406 18.1143 14.3636C18.2026 14.5051 18.4366 13.9839 19.7706 13.699C19.3704 14.2846 18.8865 14.8058 18.3351 15.2455C17.424 15.9314 16.5847 16.7479 16.3943 17.4424C16.1907 18.182 16.9733 19.1659 18.0096 18.2541C18.5793 17.7687 19.0375 17.1618 19.3521 16.4761C19.6376 15.8093 19.9883 15.1734 20.399 14.5783C20.4217 14.9134 20.5058 15.2411 20.6469 15.5446C20.7853 15.6148 20.9743 15.3661 22.0267 15.0771C22.0158 16.3346 21.3515 16.9402 21.5049 17.1179C21.5049 17.1179 21.6514 17.327 22.0908 17.2143C22.7481 17.0436 22.7793 17.0903 22.7793 17.0903C22.0596 17.9773 21.1298 18.6622 20.0779 19.0804C19.0954 19.4884 15.2247 20.9554 15.8359 23.2841C15.9644 23.765 17.7221 26.6313 20.3086 26.7732L20.756 26.7485C21.0237 26.7112 21.1387 26.6671 21.1841 26.7265C21.2295 26.7859 21.2207 26.8703 21.2709 27.1746C21.35 27.6562 20.7861 27.5259 19.6435 27.2433C17.5951 26.7317 16.0819 24.5237 15.4294 23.5529C15.0144 23.029 14.514 22.582 13.95 22.2316C13.0517 21.7535 12.0556 21.4983 11.0424 21.4867C9.41794 21.4733 7.74663 22.0352 6.95895 22.0542C7.17867 21.8515 7.74883 21.71 7.94767 21.5244C7.63568 21.2164 6.15625 21.1178 5.74648 20.815C6.2511 20.3603 7.38337 20.2901 7.60382 20.072C7.46132 19.8356 7.40336 19.5562 7.43976 19.2812C7.43976 19.2812 7.82939 19.5859 9.00048 19.6087C9.85994 19.6258 10.7535 19.702 11.194 19.2786C11.7235 18.7641 11.8396 18.026 11.1987 17.582C10.571 17.0961 9.78044 16.8825 8.99902 16.9876C7.97148 17.0649 4.5926 17.9166 4.5926 17.9166C3.69689 18.0924 2.46868 17.2699 2.19952 17.0018" fill="#04682A"/>
</g>
</g>
</svg>
